<svg width="404" height="386" viewBox="0 0 404 386" fill="none" xmlns="http://www.w3.org/2000/svg">
<g filter="url(#filter0_d_1100_329)">
<path d="M325.042 121.091C327.85 113.056 316.373 110.622 307.935 110.363C289.157 109.787 271.445 121.581 256.124 131.013C238.901 141.957 220.455 145.931 202.944 157.134C181.762 170.282 166.253 191.248 157.541 214.259C146.093 243.218 143.429 276.871 128.136 304.346C118.748 321.597 103.066 338.215 83.2515 342.362C63.1347 347.056 43.9396 332.383 40.786 312.266C35.5444 280.255 64.7332 257.805 79.6804 232.893C90.3364 215.858 97.5075 196.432 108.106 179.325C118.215 162.923 131.492 148.422 147.101 137.075C159.413 128.061 173.208 121.336 187.767 117.074C211.181 110.133 236.712 107.987 258.485 96.2369C278.17 85.5089 297.754 73.6001 320.88 72.5777C341.501 70.6049 363.504 74.8817 379.071 88.7633C391.815 99.6497 400.066 116.93 399.605 133.806C399.317 152.598 387.682 170.224 371.266 179.066C338.693 197.037 295.781 176.2 270.999 212.69C260.328 228.141 262.316 249.093 274.066 263.493C281.784 273.674 292.887 281.752 301.239 291.746C330.168 324.563 308.914 367.144 265.541 364.567C244.244 362.997 223.493 352.182 208.373 337.221C174.807 304.288 172.863 253.413 198.783 215.008C210.058 197.944 226.618 184.768 245.309 176.618C264.015 168.208 285.024 163.514 301.311 150.582C306.552 146.522 310.829 141.525 314.472 137.205C318.749 132.338 324.034 125.31 325.013 121.235L325.056 121.106L325.042 121.091ZM307.114 184.998C309.044 184.523 311.348 182.248 308.756 181.139C306.668 180.333 303.096 181.398 302.016 182.853C300.13 185.69 304.94 185.719 306.754 185.099L307.114 184.998Z" fill="#F1EEE7"/>
<path d="M88.2498 144.376C72.7986 157.235 52.0914 170.095 32.0322 168.122C22.0386 167.272 11.8866 162.131 6.90415 153.261C2.64175 145.989 3.00175 136.543 8.44495 130.077C15.6594 121.063 29.8146 119.767 41.2482 119.277C69.4289 119.061 86.5649 110.047 105.789 89.9873C137.685 56.3201 167.867 6.46732 219.117 0.390519C236.685 -1.58228 256.816 3.88972 268.279 17.4833C277.307 27.9665 278.56 42.0785 271.072 52.9505C249.069 82.8593 202.946 76.5233 171.439 88.9217C139.586 99.8657 113.752 122.575 88.5089 144.189L88.2785 144.376H88.2498Z" fill="#F1EEE7"/>
</g>
<defs>
<filter id="filter0_d_1100_329" x="0" y="0" width="403.625" height="385.678" filterUnits="userSpaceOnUse" color-interpolation-filters="sRGB">
<feFlood flood-opacity="0" result="BackgroundImageFix"/>
<feColorMatrix in="SourceAlpha" type="matrix" values="0 0 0 0 0 0 0 0 0 0 0 0 0 0 0 0 0 0 127 0" result="hardAlpha"/>
<feOffset dy="17"/>
<feGaussianBlur stdDeviation="2"/>
<feComposite in2="hardAlpha" operator="out"/>
<feColorMatrix type="matrix" values="0 0 0 0 0 0 0 0 0 0 0 0 0 0 0 0 0 0 0.25 0"/>
<feBlend mode="normal" in2="BackgroundImageFix" result="effect1_dropShadow_1100_329"/>
<feBlend mode="normal" in="SourceGraphic" in2="effect1_dropShadow_1100_329" result="shape"/>
</filter>
</defs>
</svg>
