<svg width="90" height="90" viewBox="0 0 90 90" fill="none" xmlns="http://www.w3.org/2000/svg">
<circle cx="45" cy="45" r="45" fill="#F1EEE7"/>
<circle cx="45" cy="45" r="45" fill="url(#paint0_radial_1_234)" fill-opacity="0.3"/>
<path d="M42.8031 58.3676H42.2574C42.2494 58.3316 42.2312 58.3107 42.1797 58.3058C41.4126 58.2289 40.6725 58.0394 40.0188 57.6169L39.2453 57.117C38.2699 56.3583 37.4945 55.3719 36.9435 54.2695C36.6957 53.7742 36.5342 53.2936 36.3501 52.7854L36.1985 52.203C36.0749 51.7278 35.9776 51.2628 35.9283 50.7701C35.8851 50.3366 35.9037 49.9311 35.9271 49.4976L35.9575 48.9477C36.0947 47.9036 36.2129 46.874 36.4808 45.8527C36.7146 44.9621 36.9485 44.1151 37.0966 43.2102L37.3532 41.6458C37.3949 41.3915 37.3782 41.1687 37.3562 40.914C37.2948 40.1978 37.0674 39.5411 36.6665 38.9393C36.4725 38.6482 36.1511 38.5156 35.796 38.4985C35.0605 38.4633 34.9316 38.3697 34.3131 39.017C33.7712 39.5839 33.3282 40.2471 33.0773 41.0008L32.8954 42.093L32.8538 42.6387L32.8526 43.2932L32.8435 44.2864C32.8401 44.654 32.8598 44.9985 32.9784 45.3551C33.0815 45.6647 33.1569 45.9668 33.1073 46.2858L33.0538 46.6299C32.9974 46.9949 32.8356 47.3094 32.5714 47.5622C32.4335 47.6941 32.2925 47.8604 32.1057 47.9279C31.7472 48.0579 31.3459 48.0344 30.9866 47.934C30.3022 47.743 30.0676 46.791 30.3177 46.0376C30.4837 45.5378 30.6823 45.0857 30.9529 44.6343C31.0048 44.5475 31.0381 44.4232 31.0798 44.3289C31.2204 44.009 31.22 43.663 31.2572 43.3231L31.25 42.9123C31.2879 42.4128 31.2636 41.9384 31.2576 41.4419C31.2492 40.739 31.0044 39.8715 30.7024 39.2318C30.6209 39.059 30.5754 38.8422 30.3977 38.7373C30.1968 38.6187 29.6007 38.6956 29.2657 38.3363C29.1357 38.1965 29.0084 37.9953 28.9785 37.7993C28.8792 37.1528 29.0236 36.6689 29.3544 36.1311C29.7766 35.4448 30.6372 35.4035 31.3455 35.8579C31.9139 36.2225 32.0144 36.7803 32.0882 37.4564L32.1405 37.9358C32.1508 38.0282 32.205 38.1112 32.2573 38.14C32.507 38.2776 32.8159 37.8285 33.0432 37.5242L33.4328 37.0024C33.9683 36.5029 34.5887 36.097 35.2886 35.8473C36.0727 35.7025 36.8886 36.0648 37.4362 36.6064L38.0414 37.2047C38.4173 37.5761 38.5708 38.0756 38.7031 38.5796L39.0047 39.7309C39.137 40.2353 39.2393 40.7136 39.1696 41.2453L39.0752 41.9634L38.6295 43.5152C38.2381 44.7397 37.9671 45.9679 37.7784 47.2416C37.6529 48.0893 37.5336 48.8052 37.5942 49.6787L37.6272 50.1524C37.6696 50.7618 37.7386 51.356 37.9247 51.9369L38.376 53.3452L38.4817 53.6336C38.6182 54.0057 38.8266 54.3434 39.0472 54.6655C39.2802 55.0054 39.5686 55.2533 39.8949 55.4958C40.1461 55.6826 40.3682 55.9483 40.6892 56.0055L41.8253 56.2082C42.5222 56.3325 43.3105 56.0953 43.7205 55.5413L44.5247 54.4536C44.9109 53.9314 44.8605 53.2417 44.6558 52.6195C44.5417 52.2723 44.2522 52.0177 43.9252 51.8509C43.6402 51.8581 43.4355 52.0825 43.4139 52.3678C43.3761 52.6221 43.3779 52.9139 43.1851 53.1235C42.8849 53.4498 42.2918 53.4797 41.9674 53.1754C41.7594 52.9802 41.623 52.6051 41.6135 52.2917C41.5998 51.8414 41.7548 51.4075 42.0296 51.0483C42.4089 50.5526 43.0604 50.0311 43.6747 49.95C44.1465 49.9872 44.5793 50.1501 45.0257 50.2938C45.2413 50.3631 45.4516 50.5367 45.5665 50.719L45.9954 51.4003C46.183 51.6986 46.4551 52.0359 46.454 52.3955L46.4491 54.2494C46.368 55.265 45.319 56.7248 44.5698 57.4751C44.1075 57.9378 43.5269 58.2175 42.8914 58.3134C42.8425 58.3206 42.8182 58.3399 42.8023 58.3676H42.8031Z" fill="#566700"/>
<path d="M57.0058 55.9748C56.6579 55.8403 56.3813 55.6758 56.0758 55.503C55.7643 55.3272 55.4403 55.1669 55.23 54.8546L54.9674 54.465C54.8575 54.3017 54.8112 54.0921 54.7771 53.8943L54.4713 52.1295L54.258 50.9998C54.1283 50.3135 53.8786 49.7 53.5455 49.0921C53.2912 48.6282 53.0475 48.1883 52.6765 47.8116C52.4651 47.5971 52.2502 47.4944 51.9652 47.3837L51.2899 47.1215C50.9238 47.0552 50.5468 46.9949 50.2125 46.8206L49.6884 46.4329L49.4504 46.1354C49.2462 46.0411 49.1044 45.8827 49.1897 45.6515L49.411 45.0535C49.5527 44.6704 49.7881 44.4615 50.0962 44.2376L50.9037 43.4505C51.0663 43.2921 51.1307 43.0579 51.2179 42.8555L51.6901 41.7588C51.7636 41.5882 51.8099 41.3503 51.6905 41.2025L51.2547 40.8333L51.1372 40.6571C50.8424 40.6389 50.582 40.7322 50.3092 40.8125C50.128 40.8656 49.951 40.9057 49.8013 41.0441C49.6842 41.1524 49.53 41.262 49.4383 41.4037C49.2193 41.7421 49.0332 42.1021 48.8854 42.4796L48.6201 43.1564C48.4826 43.7237 48.5727 44.2887 48.6838 44.8515L48.9422 46.1601L49.0866 46.6936C49.1416 46.8971 49.2359 47.0336 49.3549 47.2071L49.8999 48.0041C50.1041 48.3027 50.2398 48.5873 50.2322 48.953C50.2235 49.3756 50.0787 49.7629 49.7058 50.005C49.5171 50.019 49.2314 49.9482 49.0635 50.0827C48.5561 50.4893 47.9054 50.5674 47.3237 50.2502C47.0713 50.1126 46.8811 49.9099 46.8541 49.5919C46.8155 49.133 47.0326 48.6999 47.3593 48.3793C47.7341 48.0113 47.542 46.8369 47.3889 46.2328L47.1835 44.9898C47.0482 44.172 46.7708 43.6809 46.6325 42.9824C46.5976 42.8066 46.5309 42.6247 46.4585 42.4724C46.3088 42.1563 45.9992 42.129 45.7101 42.242C45.3531 42.3818 45.0101 42.2658 44.7759 42.007C44.4193 41.6129 44.3473 40.958 44.6239 40.5484C44.8437 40.2232 45.1283 39.8886 45.5183 39.7488C45.9166 39.6059 46.3842 39.6726 46.7624 39.8359C47.2327 40.039 47.3233 40.6079 47.6443 40.999C47.6666 41.0259 47.753 40.9561 47.7663 40.9266C48.0339 40.3293 48.4416 39.8427 48.9483 39.4183C49.3242 39.1034 49.804 38.9681 50.2929 38.9071C50.6976 38.8567 51.0879 38.7422 51.4976 38.7854C51.9072 38.8286 52.2593 38.9658 52.6303 39.0973C52.9448 39.2091 53.1874 39.4187 53.4185 39.6533C53.8513 40.0921 53.8362 40.6439 53.7304 41.2142C53.6706 41.5359 53.5194 41.7815 53.3837 42.0741L53.1199 42.6421L52.8569 43.7965C52.6883 44.1277 52.3931 44.3035 52.1047 44.5055C51.8163 44.7075 51.6082 44.9777 51.3691 45.2244C51.282 45.3142 51.1876 45.4703 51.2717 45.5757C51.3926 45.7273 51.6003 45.7436 51.7629 45.8171L52.6364 46.2131C52.9475 46.2957 53.2795 46.4151 53.5148 46.6512L53.8604 47.0976L54.4887 47.9567C54.5922 48.0981 54.6407 48.2607 54.6843 48.4187L54.9515 49.3873C55.0382 49.7018 55.1451 49.9887 55.3115 50.2639C55.4699 50.5261 55.5172 50.8232 55.5479 51.1233L55.5786 51.4208L55.8848 52.6316C55.9788 53.0034 56.1615 53.3096 56.3267 53.645C56.3995 53.7928 56.4601 53.8739 56.5621 53.9929C56.7849 54.2524 56.9683 54.531 57.2658 54.7125C57.4011 54.7951 57.5307 54.7841 57.6724 54.822C57.868 54.8739 58.0142 54.9471 58.2291 54.8993L58.5133 54.9077C59.0014 54.7667 59.4361 54.5575 59.8659 54.2991C60.0281 54.2017 60.2035 54.1384 60.3411 54.0103C60.4684 53.8913 60.5162 53.7412 60.5859 53.5908C60.6833 53.3812 60.7003 53.175 60.6351 52.9393L60.4934 52.4281C60.3528 51.9207 59.8996 51.3052 59.3906 51.1802C58.9738 51.0775 58.3269 51.6308 58.5706 51.7395C58.768 51.8278 58.934 52.0207 58.8741 52.2561C58.8381 52.3967 58.6714 52.4588 58.563 52.5149C58.2295 52.6873 57.6304 52.5949 57.5205 52.3542C57.3109 51.8949 57.5011 50.9884 57.8555 50.5382C58.4273 50.2578 59.0075 49.9849 59.6464 49.9042C59.8424 49.8796 60.0258 50.0334 60.2043 50.0668C60.9467 50.2047 60.789 50.8228 61.3518 51.1412C61.7512 51.6531 61.9047 52.2652 61.8732 52.9151C61.8573 53.2425 61.8683 53.5764 61.6788 53.8595L61.2422 54.3601C61.0141 54.6215 60.8049 54.8448 60.5074 55.0126L59.1147 55.7997C58.7267 56.0192 57.9384 56.054 57.4257 56.0108L57.0066 55.9756L57.0058 55.9748Z" fill="#566700"/>
<path d="M41.9363 31.5004C42.0898 31.6656 42.3384 31.6853 42.3782 32.0313C42.5597 32.2575 42.7507 32.4622 42.9629 32.6502C43.105 32.7756 43.163 32.9154 43.2267 33.0818C43.2983 33.269 43.2964 33.3963 43.2665 33.5926C43.2066 33.9837 43.0175 34.3756 42.6173 34.5082C42.3411 34.5995 42.0913 34.7432 41.8594 34.9141C41.6275 35.085 41.1458 35.0986 40.8434 34.8826C40.2912 34.4881 40.3913 33.8609 40.3128 33.5809C40.195 33.1595 40.148 32.7078 40.3841 32.3167C40.5709 32.0074 40.8244 31.7422 41.1557 31.5978C41.2148 31.572 41.2618 31.5534 41.2758 31.5008L41.9363 31.5V31.5004Z" fill="#566700"/>
<path d="M44.9019 46.1745C44.845 46.8361 44.3323 47.6623 43.7604 48.0166C43.5069 48.1739 43.1833 48.2493 42.8725 48.1705C42.3856 48.0473 41.9289 47.74 41.5962 47.3701C41.3392 47.0847 41.1869 46.7702 41.0929 46.4106C40.9137 45.725 40.8212 45.0482 40.6715 44.3562L40.3668 42.9495L40.3763 41.758L40.4362 41.3112L40.451 39.6078L40.4858 39.1L40.6651 38.0802C40.7644 37.5152 41.0876 36.4359 41.5499 36.29L41.9081 36.177C42.2541 36.0679 42.5784 36.3229 42.7217 36.6356C42.9874 37.2146 42.7793 38.416 42.5811 39.0985C42.3939 39.7423 42.273 40.3722 42.237 41.0403L42.2014 41.6978L42.1908 43.463C42.187 44.0959 42.5591 45.5768 43.242 45.6053C43.4258 45.6129 43.5528 45.4522 43.6558 45.332C43.7498 45.2229 43.9071 45.1975 44.0359 45.1645C44.3262 45.0899 44.5767 45.2184 44.7257 45.473C44.8454 45.6773 44.9227 45.9342 44.9023 46.1737L44.9019 46.1745Z" fill="#566700"/>
<path d="M72.3987 47.7562L72.398 48.5183C72.3976 48.9355 71.9148 49.6309 71.554 49.7613L70.7802 50.0413C70.3716 50.1891 69.9298 50.1228 69.5201 49.9849L68.7955 49.659C68.5556 49.551 68.2889 49.4392 68.1414 49.2254L67.706 48.5937C67.6276 48.4796 67.3183 48.4683 67.2001 48.5365C66.8594 48.7324 66.6927 49.4452 65.112 49.8026C64.708 49.8939 64.3503 49.9133 63.9342 49.8579C63.3161 49.7757 62.7052 49.637 62.2201 49.2061C61.643 48.6937 61.2739 47.9434 61.1787 47.1756L61.1715 46.2456C61.1693 45.9705 61.2538 45.6916 61.308 45.4115C61.5198 44.3144 62.2561 43.4474 63.2623 42.9733C63.6473 42.7918 64.0892 42.691 64.5174 42.708C64.8198 42.7201 65.1128 42.7993 65.3943 42.8816C65.8548 43.0157 66.1731 43.4606 66.338 43.3746C66.3993 43.3428 66.358 43.2488 66.3751 43.2098C66.4297 43.0828 66.3785 42.9301 66.3812 42.805C66.4001 41.9543 66.1822 41.1584 65.7263 40.4418C65.3818 39.9003 64.9945 39.4641 64.3552 39.6585L63.6568 39.8707C63.5226 39.9116 63.4715 40.0113 63.4559 40.1557L63.4131 40.5468C63.3457 41.1649 62.8932 41.686 62.2671 41.7538C61.8052 41.8038 61.3375 41.603 61.1208 41.1891C60.9468 40.8568 60.8737 40.4627 60.8934 40.0886C60.9131 39.7146 61.073 39.3383 61.2625 39.015C61.3724 38.8278 61.5357 38.7422 61.7286 38.6736C62.0758 38.5504 62.6002 37.672 64.0687 37.5613C64.5375 37.5261 65.0506 37.5318 65.4758 37.7417C65.9946 37.9979 66.5073 38.312 66.8151 38.7986L67.5779 40.0049L67.9004 40.6252C68.1581 41.1209 68.2551 41.6632 68.3537 42.2093L68.4116 42.8107L68.4401 43.94L68.2206 45.5726C68.1558 46.0539 68.2748 46.5412 68.4431 46.9869C68.5981 47.3969 68.9941 47.6512 69.4223 47.6042C69.6058 47.5841 69.5974 47.0407 69.9836 46.5988C70.2386 46.307 70.5895 46.0789 70.9916 46.085C71.3486 46.0903 71.6256 46.3135 71.861 46.5609C72.1732 46.8895 72.3358 47.3189 72.3972 47.7569L72.3987 47.7562ZM65.6429 47.4034L65.9616 47.01L65.9609 46.2983L65.9196 45.6984C65.8938 45.3221 65.7392 45.0159 65.4428 44.7863C65.2185 44.6127 64.9256 44.4001 64.6118 44.4687C64.2101 44.5566 63.8216 44.7999 63.5374 45.0959C63.2744 45.3699 63.1243 45.7484 63.0739 46.1179C63.0247 46.4787 63.1046 46.8433 63.2562 47.1559C63.501 47.6614 63.9948 47.9476 64.5606 47.9013C64.9616 47.8684 65.3803 47.7278 65.6429 47.4038V47.4034Z" fill="#566700"/>
<path d="M58.591 47.8772C58.3481 48.0451 58.0714 48.075 57.8099 48.1379C57.5674 48.1963 57.3806 48.1626 57.1513 48.1072C55.9674 47.8215 55.9837 46.7327 55.806 45.7016L55.715 45.1741C55.6245 44.6481 55.6476 44.1376 55.712 43.6074L55.7078 43.2444L55.7067 42.1977C55.7059 41.5307 55.7662 40.8982 55.9193 40.2487L55.9595 39.8288L55.9841 39.4775C56.0163 39.0144 56.1073 38.5585 56.2623 38.1212C56.4938 37.4682 57.1934 36.8767 57.7713 37.0264C58.1427 37.1222 58.3291 37.5474 58.3636 37.9082C58.403 38.3239 58.328 38.7309 58.1722 39.1228C57.9009 39.8061 57.7023 40.4795 57.5519 41.2044C57.4389 41.7486 57.373 42.2477 57.373 42.8116V43.717C57.3738 44.3335 57.4022 44.9243 57.6489 45.5C57.7592 45.7577 58.0051 45.4378 58.3519 45.3275C58.6058 45.2468 58.8995 45.2734 59.0795 45.4791C59.4444 45.896 59.3864 46.7468 59.1367 47.1015L58.5906 47.878L58.591 47.8772Z" fill="#566700"/>
<path d="M56.7219 35.6501C56.5051 35.6069 56.2637 35.4105 56.1477 35.2256C56.0018 34.9933 55.9473 34.6814 55.9814 34.4112C56.0522 33.8553 56.308 33.0443 56.781 32.8203L57.4722 32.6331L57.9755 32.5005C58.1528 32.505 58.3196 32.5732 58.4897 32.6225C58.9919 33.4369 58.9873 34.4336 58.2423 35.082C57.9194 35.3628 57.551 35.6353 57.1012 35.6569C56.9928 35.6622 56.8538 35.6762 56.7215 35.6501H56.7219Z" fill="#566700"/>
<path d="M18.0739 42.5921C18.0694 42.5618 18.0864 42.5152 18.0675 42.4689C18.0595 42.4496 18.0349 42.4314 18 42.4439V41.9713C18.0409 41.977 18.072 41.9558 18.0807 41.9005L18.252 40.803C18.4233 39.7051 18.5866 39.109 19.1077 38.1309C19.287 37.7944 19.5515 37.5488 19.8073 37.2673C20.6346 36.3566 21.311 35.7378 22.551 35.4824C22.789 35.4335 23.0664 35.4592 23.2971 35.4831C23.6303 35.518 23.877 35.7749 23.9853 36.0523C24.0422 36.1978 24.1604 36.1323 24.2631 36.1319L25.4572 36.1236C25.6573 36.122 25.8354 36.2115 26.0026 36.299L26.6453 36.6371C26.9818 36.814 27.2691 37.0054 27.5241 37.2908C27.9986 37.8213 28.3214 38.4223 28.6068 39.078C28.8922 39.7336 29.1502 40.4278 29.1957 41.1691L29.1878 41.9607C29.123 42.5614 29.0362 43.1382 28.9297 43.7301C28.888 43.9613 28.8107 44.1636 28.744 44.385C28.5477 45.0372 28.2339 45.6109 27.8197 46.1483C27.5567 46.4893 27.2975 46.8024 26.9663 47.079C26.729 47.2772 26.5066 47.4637 26.2459 47.6327C25.2276 48.2921 24.143 48.5361 22.928 48.4596C22.4915 48.4319 22.144 48.2519 21.7605 48.098C21.3671 47.9404 21.0044 47.7464 20.6846 47.4693L20.0411 46.913C19.3556 46.2066 18.6249 45.0072 18.374 44.0716C18.2406 43.574 18.147 43.0851 18.0743 42.5913L18.0739 42.5921ZM24.5049 42.7539C24.8725 42.5189 25.0116 42.1604 24.9941 41.7534C24.9801 41.4241 24.921 41.1001 24.6413 40.8928C24.6057 40.8667 24.5367 40.875 24.5121 40.8955C24.409 40.9819 24.6273 41.3165 24.4041 41.6541C24.3272 41.7705 24.115 41.8698 23.9732 41.855C23.4196 41.7974 23.1152 41.2915 23.1478 40.7761C23.1622 40.5514 23.1751 40.393 23.2793 40.1978C23.5935 39.61 24.1517 39.1632 24.7645 39.4304C25.1734 39.6085 25.5588 39.9049 25.7813 40.2952C26.0037 40.6855 26.1856 41.1012 26.2625 41.5689C26.3614 42.1707 26.2421 42.8115 25.9139 43.3367C25.66 43.7434 25.2924 44.0556 24.9233 44.3418C24.5955 44.596 24.2173 44.6362 23.822 44.6381C23.5249 44.6396 23.3047 44.5881 23.0383 44.4611C22.288 44.1034 21.6411 43.5664 21.2807 42.8039C21.0522 42.3207 20.9048 41.8201 20.9192 41.2847C20.9362 40.6624 21.1988 39.6453 21.4205 39.0313C21.5964 38.544 21.8268 38.1245 22.1099 37.6879C21.9499 37.6682 21.8692 37.7463 21.7718 37.8209C20.8123 38.5584 20.5379 39.1443 20.1874 40.2683C20.112 40.5101 20.1078 40.789 20.0949 41.0452L20.0547 41.8421C20.0339 42.2601 20.0377 42.6755 20.1271 43.0957C20.3102 43.9594 20.7642 44.6987 21.344 45.3562C21.5619 45.6033 21.8431 45.7473 22.1288 45.9186C22.4926 46.1365 22.9189 46.1574 23.3347 46.2063C24.2298 46.3109 25.3504 45.944 26.0079 45.3581C26.5684 44.8587 26.9685 44.2247 27.1588 43.4902C27.4722 42.2791 27.4153 41.0031 26.9845 39.8257C26.7817 39.2712 26.4384 38.7956 26.0064 38.4064C25.3299 37.7971 24.14 37.8459 23.3836 38.4443C22.4217 39.2049 22.2508 40.1796 22.2777 41.3301C22.2876 41.7565 22.4634 42.096 22.753 42.3852C23.0425 42.6743 23.3483 42.9047 23.7511 42.9798C24.0176 43.029 24.2813 42.8968 24.5049 42.7539Z" fill="#566700"/>
<defs>
<radialGradient id="paint0_radial_1_234" cx="0" cy="0" r="1" gradientUnits="userSpaceOnUse" gradientTransform="translate(45 45) rotate(90) scale(45)">
<stop offset="0.490385" stop-color="white" stop-opacity="0"/>
<stop offset="0.879808" stop-color="#819A00" stop-opacity="0.2"/>
<stop offset="1" stop-color="#ABCD00" stop-opacity="0.7"/>
</radialGradient>
</defs>
</svg>
